<?xml version="1.0" encoding="UTF-8" standalone="no"?>
<!DOCTYPE svg PUBLIC "-//W3C//DTD SVG 1.1//EN" "http://www.w3.org/Graphics/SVG/1.1/DTD/svg11.dtd">
<svg width="100%" height="100%" viewBox="0 0 24 24" version="1.1" xmlns="http://www.w3.org/2000/svg" xmlns:xlink="http://www.w3.org/1999/xlink" xml:space="preserve" xmlns:serif="http://www.serif.com/" style="fill-rule:evenodd;clip-rule:evenodd;stroke-linejoin:round;stroke-miterlimit:2;">
    <rect x="0" y="0" width="24" height="24" style="fill:none;fill-rule:nonzero;"/>
    <g transform="matrix(1.16156,0,0,1.16156,-1.93875,-1.93875)">
        <circle cx="12" cy="12" r="10.331" style="fill:rgb(131,189,192);"/>
    </g>
    <g id="refresh" transform="matrix(1,0,0,1,12,12)">
        <g transform="matrix(1,0,0,1,-12,-12)">
            <rect x="0" y="0" width="24" height="24" style="fill:none;fill-rule:nonzero;"/>
            <path d="M17.65,6.35C16.02,4.72 13.71,3.78 11.17,4.04C7.5,4.41 4.48,7.39 4.07,11.06C3.52,15.91 7.27,20 12,20C15.19,20 17.93,18.13 19.21,15.44C19.53,14.77 19.05,14 18.31,14C17.94,14 17.59,14.2 17.43,14.53C16.3,16.96 13.59,18.5 10.63,17.84C8.41,17.35 6.62,15.54 6.15,13.32C5.31,9.44 8.26,6 12,6C13.66,6 15.14,6.69 16.22,7.78L14.71,9.29C14.08,9.92 14.52,11 15.41,11L19,11C19.55,11 20,10.55 20,10L20,6.41C20,5.52 18.92,5.07 18.29,5.7L17.65,6.35Z" style="fill:white;fill-rule:nonzero;"/>
        </g>
    </g>
</svg>
